<svg xmlns="http://www.w3.org/2000/svg" xmlns:xlink="http://www.w3.org/1999/xlink" width="242.33" height="57.141" viewBox="0 0 242.33 57.141">
    <defs>
        <linearGradient id="linear-gradient" x1="-9.625" x2="-9.627" y1="73.372" y2="74.217" gradientUnits="objectBoundingBox">
            <stop offset="0" stop-color="#e2e0e5" stop-opacity="0"/>
            <stop offset=".52" stop-color="#959394" stop-opacity=".4"/>
            <stop offset=".65" stop-color="#817f7f" stop-opacity=".502"/>
        </linearGradient>
        <linearGradient id="linear-gradient-2" x1=".512" x2=".481" y1="-.082" y2="1.444" xlink:href="#linear-gradient"/>
        <linearGradient id="linear-gradient-3" x1=".506" x2=".49" y1="-.085" y2="1.448" xlink:href="#linear-gradient"/>
        <clipPath id="clip-path">
            <path id="Union_1" d="M359.177 253.911c-2.141 0-3-.642-3.6-2.483l-1.328-3.941h-8.909l-1.328 3.941c-.6 1.841-1.455 2.483-3.6 2.483l-2.919-.16a1.764 1.764 0 0 1-1.57-2.347l9.886-28.124h7.966l8.354 23.259c.257.727.472.942 1.155.942h.071zm-12.205-12.635h5.653l-1.543-5.1c-.6-1.925-1.242-5.054-1.242-5.054h-.085z" class="cls-1" transform="translate(-335.828 -223.28)"/>
        </clipPath>
        <clipPath id="clip-path-2">
            <path id="Union_1-2" d="M1194.672 223.42h9.785c9.637 0 15.806 5.614 15.806 15.248s-6.169 15.376-15.806 15.376h-6.681c-2.185 0-3.126-.942-3.126-3.126v-21.074zm7.637 23.259a.856.856 0 0 0 .762.943.839.839 0 0 0 .18 0h.9c5.053 0 8.137-3.085 8.137-8.952 0-5.824-3.208-8.822-8.137-8.822h-1.841z" class="cls-1" transform="translate(-1194.65 -223.42)"/>
        </clipPath>
        <clipPath id="clip-path-3">
            <path id="Union_1-3" d="M1403.958 251.754v.013h-16.83a4.2 4.2 0 0 1-4.331-2.512l-3.6-6.9c-.515-.943-1.156-1.157-2.741-1.157h-1.028v10.322h-8.08V220.9h11.936c5.953 0 10.106 3.468 10.106 9.637 0 6.124-4.491 7.966-4.491 7.966v.087a4.243 4.243 0 0 1 1.885 1.841l1.925 3.689c.47.9 1.242.832 2.1.832h2.823a16.327 16.327 0 0 1-2.566-8.928c0-8.781 6.768-15.632 16.02-15.632s16.018 6.853 16.018 15.632a15.678 15.678 0 0 1-16.018 16.02 17.59 17.59 0 0 1-3.125-.287zm-4.929-15.737c0 5.1 3.6 8.951 8.054 8.951s8.052-3.85 8.052-8.951c0-4.883-3.6-8.567-8.052-8.567s-8.054 3.684-8.054 8.567zm-23.594-1.243h2.656c2.27 0 3.468-1.328 3.468-3.77s-1.2-3.689-3.34-3.689h-2.785z" class="cls-1" transform="translate(-1367.35 -220.39)"/>
        </clipPath>
        <style>
            .cls-1{fill:none}.cls-2{fill:#e2e0e5}
        </style>
    </defs>
    <g id="San_Ysidro-logo-E2E0E5" transform="translate(-204.63 -207.471)">
        <path id="Path_48" d="M271.944 213.124v10.048a44.54 44.54 0 0 0 .343 4.594h-.087a52.094 52.094 0 0 0-2.576-4.594l-8.5-13.182h-6.913v23.31a.859.859 0 0 1-.945.945h-.066c-.687 0-.9-.215-1.16-.945l-8.368-23.315h-7.99l-9.91 28.193a1.764 1.764 0 0 0 1.574 2.353l2.926.16c2.146 0 3-.642 3.606-2.491l1.331-3.951h8.931l1.331 3.951c.6 1.846 1.46 2.491 3.606 2.491h9.688c2.19 0 3.134-.945 3.134-3.134v-10.006a44.54 44.54 0 0 0-.343-4.594h.08a45.06 45.06 0 0 0 2.576 4.594l8.545 13.14h6.877v-23.315a.859.859 0 0 1 .943-.945h1.846v-6.442h-7.342c-2.192 0-3.137.945-3.137 3.135zm-35.108 14.9l2.791-10.176h.087s.642 3.134 1.245 5.067l1.546 5.109zm-24.01-9.624c0-1.416 1.588-2.061 3.134-2.061 1.416 0 3.006.687 3.006 1.8v1.331h6.87v-3.34c0-4.681-5.712-6.655-9.785-6.655-6.1 0-10.949 3.689-10.949 9.231 0 9.624 13.91 10 13.91 13.4 0 1.718-1.545 2.276-3.091 2.276-3.864 0-7.042-3.608-7.042-3.608l-4.251 5.367a15 15 0 0 0 11.208 5.067c6.912 0 10.908-4.381 10.908-9.49-.006-10.09-13.918-9.575-13.918-13.31zm218.081-8.919c-9.275 0-16.06 6.87-16.06 15.672a16.38 16.38 0 0 0 2.578 8.951H414.6c-.858 0-1.631.067-2.1-.834l-1.925-3.689a4.244 4.244 0 0 0-1.89-1.846v-.087s4.509-1.846 4.509-7.987c0-6.182-4.171-9.661-10.133-9.661h-11.98v30.7h8.1v-10.358h1.031c1.588 0 2.233.215 2.748 1.16l3.608 6.913a4.193 4.193 0 0 0 4.331 2.517h16.871v-.011a17.508 17.508 0 0 0 3.133.282 15.718 15.718 0 0 0 16.058-16.06c.005-8.798-6.78-15.662-16.053-15.662zM401.844 223.9h-2.663v-7.47h2.793c2.146 0 3.348 1.245 3.348 3.689s-1.202 3.781-3.478 3.781zm29.064 10.219c-4.466 0-8.073-3.864-8.073-8.975 0-4.894 3.608-8.587 8.073-8.587s8.072 3.689 8.072 8.587c-.001 5.113-3.606 8.977-8.072 8.977zM321.07 211.183c-.348 1.684-1.02 2.36-2.406 3.75l-5.545 5.54a9.218 9.218 0 0 0-2.246 3.3l-.3-.525c.111-1.136.687-2.284 2.8-4.4l5.281-5.279c1.405-1.405 2.586-2.616 2.586-3.94v-2.069c0-.125-.144-.127-.17 0-.348 1.686-1.022 2.35-2.406 3.741l-6.121 6.124a7.04 7.04 0 0 0-2.343 5.175c-1.213-2.111-2.5-4.341-3.048-5.263l-3.136-5.285c-1.03-1.764-2.06-2.061-3.949-2.061h-4.207v6.442h1.245c.945 0 .986.085 1.545.945l6.527 9.875v13.44h7.687v-13.4a.2.2 0 0 0 .016-.032 5.242 5.242 0 0 1 1.293-1.949l4.474-4.474c1.405-1.405 2.584-2.616 2.584-3.94v-2.063c0-.125-.143-.127-.17 0-.346 1.686-1.02 2.348-2.406 3.737l-5.391 5.383a5.059 5.059 0 0 0-1.251 1.817l-.459-.8a10.177 10.177 0 0 1 2.2-2.87l4.9-4.9c1.405-1.405 2.586-2.616 2.586-3.94v-2.092c0-.117-.144-.117-.17.01zm52.188-1.19H344.4v6.442h3.221v17.815H344.4v6.442h13.7v-6.442h-3.22v-17.819h8.543v21.121c0 2.19.945 3.134 3.134 3.134h6.7c9.661 0 15.845-5.754 15.845-15.415s-6.182-15.282-15.843-15.282zm-.3 24.257h-.9a.859.859 0 0 1-.945-.945v-16.874h1.846c4.937 0 8.158 3 8.158 8.845-.001 5.882-3.093 8.973-8.162 8.973zm-43.01-15.843c0-1.416 1.588-2.061 3.134-2.061 1.416 0 3.006.687 3.006 1.8v1.331h6.873v-3.347c0-4.681-5.71-6.655-9.785-6.655-6.1 0-10.949 3.689-10.949 9.231 0 9.624 13.912 10 13.912 13.4 0 1.718-1.546 2.276-3.093 2.276-3.864 0-7.042-3.608-7.042-3.608l-4.251 5.367a15 15 0 0 0 11.208 5.067c6.912 0 10.908-4.381 10.908-9.49-.012-10.091-13.924-9.576-13.924-13.312z" class="cls-2"/>
        <path id="Path_49" d="M491.65 500.421l.382-.63a5.54 5.54 0 0 0 3.835 1.461c2.324 0 3.354-1.014 3.354-2.276 0-3.486-7.257-1.394-7.257-5.678 0-1.644 1.262-3.088 4.118-3.088a6.22 6.22 0 0 1 3.5 1.046l-.321.68a5.749 5.749 0 0 0-3.189-.978c-2.257 0-3.271 1.046-3.271 2.324 0 3.487 7.257 1.428 7.257 5.645 0 1.644-1.312 3.072-4.185 3.072a5.944 5.944 0 0 1-4.223-1.578z" class="cls-2" transform="translate(-240.98 -237.386)"/>
        <path id="Path_50" d="M591.571 494.639c0 2.441-1.764 3.9-4.682 3.9h-3.322v3.8h-.847V490.72h4.171c2.921 0 4.68 1.461 4.68 3.919zm-.863 0c0-2.008-1.328-3.154-3.819-3.154h-3.322v6.293h3.32c2.493 0 3.821-1.145 3.821-3.139z" class="cls-2" transform="translate(-317.442 -237.814)"/>
        <path id="Path_51" d="M669.819 499.072h-6.737l-1.477 3.272h-.914l5.343-11.625h.847l5.346 11.625h-.914zm-.321-.714l-3.048-6.708-3.038 6.708z" class="cls-2" transform="translate(-382.905 -237.814)"/>
        <path id="Path_52" d="M775.906 490.72v11.625h-.7l-7.921-10.1v10.1h-.847V490.72h.715l7.9 10.1v-10.1z" class="cls-2" transform="translate(-471.692 -237.814)"/>
        <path id="Path_53" d="M871.4 490.72h.845v11.625h-.845z" class="cls-2" transform="translate(-559.816 -237.814)"/>
        <path id="Path_54" d="M915.28 500.421l.382-.63a5.54 5.54 0 0 0 3.835 1.461c2.324 0 3.354-1.014 3.354-2.276 0-3.486-7.255-1.394-7.255-5.678 0-1.644 1.261-3.088 4.118-3.088a6.22 6.22 0 0 1 3.5 1.046l-.321.68a5.739 5.739 0 0 0-3.187-.978c-2.259 0-3.271 1.046-3.271 2.324 0 3.487 7.255 1.428 7.255 5.645 0 1.644-1.312 3.072-4.183 3.072a5.953 5.953 0 0 1-4.227-1.578z" class="cls-2" transform="translate(-596.658 -237.386)"/>
        <path id="Path_55" d="M1015.824 490.72v11.625h-.845v-5.529h-7.772v5.529h-.847V490.72h.847v5.348h7.772v-5.348z" class="cls-2" transform="translate(-673.128 -237.814)"/>
        <path id="Path_56" d="M1151.26 500.421l.382-.63a5.544 5.544 0 0 0 3.837 1.461c2.324 0 3.353-1.014 3.353-2.276 0-3.486-7.255-1.394-7.255-5.678 0-1.644 1.262-3.088 4.118-3.088a6.219 6.219 0 0 1 3.5 1.046l-.321.68a5.748 5.748 0 0 0-3.189-.978c-2.259 0-3.271 1.046-3.271 2.324 0 3.487 7.255 1.428 7.255 5.645 0 1.644-1.311 3.072-4.183 3.072a5.951 5.951 0 0 1-4.226-1.578z" class="cls-2" transform="translate(-794.785 -237.386)"/>
        <path id="Path_57" d="M1242.333 490.72h4.6c3.689 0 6.177 2.425 6.177 5.811s-2.488 5.813-6.177 5.813h-4.6zm4.533 10.859c3.287 0 5.4-2.085 5.4-5.048s-2.109-5.046-5.4-5.046h-3.689v10.094z" class="cls-2" transform="translate(-871.247 -237.814)"/>
        <path id="Path_58" d="M1344.549 499.072h-6.737l-1.477 3.272h-.914l5.348-11.625h.841l5.346 11.625h-.914zm-.321-.714l-3.048-6.708-3.038 6.708z" class="cls-2" transform="translate(-949.405 -237.814)"/>
        <g id="Group_34" clip-path="url(#clip-path)" transform="translate(225.675 210.007)">
            <path id="Rectangle_55" fill="url(#linear-gradient)" d="M0 0H33.693V8.905H0z" transform="rotate(105.154 12.342 10.288)"/>
        </g>
        <g id="Group_35" clip-path="url(#clip-path-2)" transform="translate(363.435 210.03)">
            <path id="Rectangle_56" fill="url(#linear-gradient-2)" d="M0 0H9.27V17.93H0z" transform="translate(-.011 6.254)"/>
        </g>
        <g id="Group_36" clip-path="url(#clip-path-3)" transform="translate(391.137 209.543)">
            <path id="Rectangle_57" fill="url(#linear-gradient-3)" d="M0 0H16.307V17.486H0z" transform="translate(23.902 7.059)"/>
        </g>
    </g>
</svg>
