<svg xmlns="http://www.w3.org/2000/svg" width="242.313" height="61.128" viewBox="0 0 242.313 61.128">
    <defs>
        <style>
            .cls-1{fill:#efefef}
        </style>
    </defs>
    <g id="Logo" transform="translate(-477.941 -715.794)">
        <path id="Union_1" d="M223.125 33.448v.009h-16.87a4.2 4.2 0 0 1-4.336-2.517l-3.606-6.912c-.516-.945-1.159-1.159-2.748-1.159h-1.031v10.346h-8.1V2.518H198.4c5.968 0 10.132 3.477 10.132 9.66 0 6.14-4.508 7.986-4.508 7.986v.086a4.25 4.25 0 0 1 1.889 1.846l1.932 3.692c.472.9 1.245.835 2.1.835h2.829a16.379 16.379 0 0 1-2.577-8.949c0-8.8 6.783-15.67 16.057-15.67s16.056 6.869 16.056 15.67a15.715 15.715 0 0 1-16.053 16.056 17.483 17.483 0 0 1-3.132-.282zm-4.94-15.775c0 5.109 3.606 8.973 8.072 8.973s8.071-3.864 8.071-8.973c0-4.894-3.606-8.586-8.071-8.586s-8.072 3.692-8.072 8.586zm-23.651-1.245h2.666c2.275 0 3.477-1.331 3.477-3.778s-1.2-3.692-3.348-3.692h-2.792zm-77.428 12.236l4.25-5.367s3.177 3.603 7.044 3.603c1.546 0 3.091-.558 3.091-2.275 0-3.392-13.911-3.778-13.911-13.4 0-5.538 4.852-9.23 10.948-9.23 4.079 0 9.789 1.975 9.789 6.655v3.349h-6.87v-1.324c0-1.117-1.588-1.8-3-1.8-1.546 0-3.134.644-3.134 2.061 0 3.735 13.91 3.22 13.91 13.309 0 5.109-3.993 9.488-10.9 9.488a15 15 0 0 1-11.217-5.069zM0 28.664L4.25 23.3s3.177 3.6 7.041 3.6c1.546 0 3.091-.558 3.091-2.275 0-3.392-13.91-3.778-13.91-13.4C.472 5.7 5.324 2 11.42 2c4.079 0 9.789 1.975 9.789 6.655v3.349H14.34v-1.329c0-1.117-1.589-1.8-3.005-1.8-1.545 0-3.134.644-3.134 2.061 0 3.735 13.91 3.22 13.91 13.309 0 5.109-3.993 9.488-10.9 9.488A15 15 0 0 1 0 28.664zm161.916 4.551c-2.189 0-3.134-.944-3.134-3.134V8.958h-8.542v17.817h3.22v6.44h-13.7v-6.44h3.22V8.958h-3.22v-6.44h28.85c9.66 0 15.843 5.624 15.843 15.284s-6.183 15.413-15.843 15.413zm4.551-7.384a.859.859 0 0 0 .944.944h.9c5.066 0 8.158-3.091 8.158-8.973 0-5.839-3.22-8.844-8.158-8.844h-1.846zm-65.923 7.384V19.777L94.018 9.9c-.558-.859-.6-.945-1.545-.945h-1.245V2.518h4.208c1.889 0 2.919.3 3.95 2.061l3.134 5.281c.542.923 1.825 3.151 3.039 5.262a7.037 7.037 0 0 1 2.336-5.163l6.121-6.124c1.39-1.39 2.064-2.055 2.412-3.74.027-.126.17-.126.17 0v2.064c0 1.324-1.179 2.535-2.585 3.94l-5.279 5.278c-2.113 2.113-2.689 3.26-2.8 4.4l.3.524a9.194 9.194 0 0 1 2.244-3.3l5.544-5.54c1.39-1.39 2.063-2.065 2.41-3.75.026-.126.17-.126.17 0v2.075c0 1.324-1.18 2.535-2.586 3.94l-4.9 4.9a10.259 10.259 0 0 0-2.2 2.868l.459.8a5.048 5.048 0 0 1 1.25-1.818l5.387-5.382c1.39-1.39 2.063-2.052 2.41-3.738.026-.126.17-.126.17 0v2.066c0 1.324-1.18 2.534-2.585 3.94l-4.472 4.473a5.243 5.243 0 0 0-1.293 1.949.366.366 0 0 1-.017.033v13.4zm-32.417 0l-8.544-13.137a46.219 46.219 0 0 1-2.576-4.594h-.086a44.236 44.236 0 0 1 .344 4.594v10c0 2.189-.945 3.134-3.134 3.134h-9.688c-2.147 0-3-.644-3.606-2.49l-1.331-3.95h-8.93l-1.331 3.95c-.6 1.846-1.459 2.49-3.606 2.49l-2.925-.156a1.768 1.768 0 0 1-1.575-2.352l9.909-28.19h7.985l8.372 23.313c.258.73.473.944 1.159.944h.07a.859.859 0 0 0 .945-.944V2.518h6.912l8.5 13.181a52.134 52.134 0 0 1 2.576 4.594h.086a44.288 44.288 0 0 1-.344-4.594V5.652c0-2.189.945-3.134 3.134-3.134h7.342v6.44H75.94A.859.859 0 0 0 75 9.9v23.315zM33.753 15.441l-1.546 5.109h5.667l-1.546-5.109c-.6-1.932-1.245-5.066-1.245-5.066H35s-.646 3.134-1.247 5.066z" class="cls-1" transform="translate(477.941 715.794)"/>
        <g id="Group_17" transform="translate(523.979 765.134)">
            <path id="Path_36" d="M566.924 821.371l.382-.631a5.53 5.53 0 0 0 3.835 1.461c2.324 0 3.354-1.013 3.354-2.274 0-3.487-7.255-1.395-7.255-5.678 0-1.644 1.262-3.088 4.117-3.088a6.237 6.237 0 0 1 3.5 1.046l-.316.681a5.741 5.741 0 0 0-3.188-.98c-2.258 0-3.271 1.046-3.271 2.325 0 3.487 7.255 1.427 7.255 5.645 0 1.643-1.312 3.071-4.184 3.071a5.958 5.958 0 0 1-4.229-1.578z" class="cls-1" transform="translate(-566.924 -811.16)"/>
            <path id="Path_37" d="M604.009 815.239c0 2.441-1.76 3.9-4.682 3.9h-3.321v3.8h-.846V811.32h4.167c2.922 0 4.682 1.462 4.682 3.919zm-.864 0c0-2.008-1.328-3.154-3.818-3.154h-3.321v6.292h3.321c2.49 0 3.818-1.146 3.818-3.138z" class="cls-1" transform="translate(-580.551 -811.237)"/>
            <path id="Path_38" d="M628.451 819.671h-6.74l-1.478 3.271h-.913l5.346-11.622h.847l5.346 11.622h-.913zm-.316-.714l-3.055-6.708-3.038 6.708z" class="cls-1" transform="translate(-592.211 -811.237)"/>
            <path id="Path_39" d="M661.575 811.32v11.622h-.7l-7.92-10.094v10.094h-.846V811.32h.714l7.9 10.095V811.32z" class="cls-1" transform="translate(-608.037 -811.237)"/>
            <path id="Path_40" d="M684.647 811.32h.846v11.622h-.846z" class="cls-1" transform="translate(-623.739 -811.237)"/>
            <path id="Path_41" d="M698.251 821.371l.382-.631a5.527 5.527 0 0 0 3.835 1.461c2.325 0 3.354-1.013 3.354-2.274 0-3.487-7.255-1.395-7.255-5.678 0-1.644 1.262-3.088 4.118-3.088a6.235 6.235 0 0 1 3.5 1.046l-.315.681a5.742 5.742 0 0 0-3.188-.98c-2.258 0-3.271 1.046-3.271 2.325 0 3.487 7.255 1.427 7.255 5.645 0 1.643-1.312 3.071-4.184 3.071a5.957 5.957 0 0 1-4.231-1.578z" class="cls-1" transform="translate(-630.305 -811.16)"/>
            <path id="Path_42" d="M735.949 811.32v11.622h-.849v-5.528h-7.77v5.528h-.847V811.32h.847v5.346h7.77v-5.346z" class="cls-1" transform="translate(-643.932 -811.237)"/>
            <path id="Path_43" d="M771.406 821.371l.382-.631a5.527 5.527 0 0 0 3.835 1.461c2.325 0 3.354-1.013 3.354-2.274 0-3.487-7.255-1.395-7.255-5.678 0-1.644 1.262-3.088 4.118-3.088a6.237 6.237 0 0 1 3.5 1.046l-.315.681a5.743 5.743 0 0 0-3.188-.98c-2.258 0-3.271 1.046-3.271 2.325 0 3.487 7.255 1.427 7.255 5.645 0 1.643-1.312 3.071-4.184 3.071a5.956 5.956 0 0 1-4.231-1.578z" class="cls-1" transform="translate(-665.611 -811.16)"/>
            <path id="Path_44" d="M799.642 811.32h4.6c3.686 0 6.176 2.424 6.176 5.811s-2.49 5.811-6.176 5.811h-4.6zm4.532 10.858c3.287 0 5.4-2.092 5.4-5.047s-2.109-5.047-5.4-5.047h-3.686v10.094z" class="cls-1" transform="translate(-679.238 -811.237)"/>
            <path id="Path_45" d="M837.617 819.671h-6.74l-1.478 3.271h-.913l5.346-11.622h.847l5.346 11.622h-.913zm-.316-.714l-3.055-6.708-3.038 6.708z" class="cls-1" transform="translate(-693.159 -811.237)"/>
        </g>
    </g>
</svg>
