<svg xmlns="http://www.w3.org/2000/svg" width="47.602" height="53.128" viewBox="0 0 47.602 53.128">
    <defs>
        <style>
            .cls-1{fill:#efefef}
        </style>
    </defs>
    <g id="Group_25" transform="translate(-477.941 -715.794)">
        <path id="Union_1" d="M0 28.664L4.25 23.3s3.178 3.6 7.041 3.6c1.546 0 3.092-.559 3.092-2.276 0-3.391-13.91-3.777-13.91-13.395C.473 5.7 5.324 2 11.42 2c4.079 0 9.789 1.975 9.789 6.655v3.349H14.34v-1.328c0-1.117-1.589-1.8-3.005-1.8-1.546 0-3.134.644-3.134 2.061 0 3.735 13.91 3.22 13.91 13.309 0 5.109-3.992 9.488-10.905 9.488A15 15 0 0 1 0 28.664zm31.544 4.551V19.778L25.018 9.9c-.558-.859-.6-.944-1.545-.944h-1.245V2.518h4.207c1.889 0 2.92.3 3.95 2.061l3.134 5.281c.542.922 1.826 3.151 3.039 5.262a7.039 7.039 0 0 1 2.335-5.164l6.121-6.124c1.39-1.391 2.065-2.056 2.412-3.74.026-.126.17-.126.17 0v2.065c0 1.324-1.18 2.535-2.585 3.94l-5.279 5.278c-2.112 2.112-2.689 3.261-2.8 4.4l.3.524A9.188 9.188 0 0 1 39.477 13l5.545-5.54c1.39-1.39 2.063-2.065 2.41-3.75.025-.126.17-.125.17 0v2.076c0 1.324-1.18 2.534-2.586 3.94l-4.9 4.9a10.259 10.259 0 0 0-2.2 2.868l.459.8a5.045 5.045 0 0 1 1.25-1.818l5.387-5.382c1.39-1.391 2.063-2.052 2.409-3.738.026-.126.171-.126.171 0v2.066c0 1.324-1.181 2.534-2.586 3.939l-4.472 4.472a5.244 5.244 0 0 0-1.292 1.95c0 .013-.013.02-.017.032v13.4z" class="cls-1" transform="translate(477.941 715.794)"/>
        <g id="Group_17" transform="translate(374.979 757.134)">
            <path id="Path_43" d="M771.406 821.371l.382-.631a5.527 5.527 0 0 0 3.835 1.461c2.325 0 3.354-1.013 3.354-2.274 0-3.487-7.255-1.395-7.255-5.678 0-1.644 1.262-3.088 4.118-3.088a6.237 6.237 0 0 1 3.5 1.046l-.315.681a5.743 5.743 0 0 0-3.188-.98c-2.258 0-3.271 1.046-3.271 2.325 0 3.487 7.255 1.427 7.255 5.645 0 1.643-1.312 3.071-4.184 3.071a5.956 5.956 0 0 1-4.231-1.578z" class="cls-1" transform="translate(-665.611 -811.16)"/>
            <path id="Path_44" d="M799.642 811.32h4.6c3.686 0 6.176 2.424 6.176 5.811s-2.49 5.811-6.176 5.811h-4.6zm4.532 10.858c3.287 0 5.4-2.092 5.4-5.047s-2.109-5.047-5.4-5.047h-3.686v10.094z" class="cls-1" transform="translate(-679.238 -811.237)"/>
            <path id="Path_45" d="M837.617 819.671h-6.74l-1.478 3.271h-.913l5.346-11.622h.847l5.346 11.622h-.913zm-.316-.714l-3.055-6.708-3.038 6.708z" class="cls-1" transform="translate(-693.159 -811.237)"/>
        </g>
    </g>
</svg>
