<svg xmlns="http://www.w3.org/2000/svg" width="234" height="64.11" viewBox="0 0 234 64.11"><g transform="translate(-108.695 -534.383)"><g transform="translate(108.695 534.383)"><path d="M141.912,616.508a9.082,9.082,0,0,0-8.568-2.532L108.7,618.152l7.984-11.294,20.152-4.042a4.5,4.5,0,0,1,5.082,1.965v2.589h-4.62V609.4h4.62v7.1Z" transform="translate(-108.695 -554.042)" fill="#49c1c7" fill-rule="evenodd"/><path d="M157.742,617.037a9.08,9.08,0,0,1,8.572-2.536l24.649,4.175-8.072-11.294L168.426,604.5a130.608,130.608,0,0,0-10.684,10.392v2.145Z" transform="translate(-122.471 -554.567)" fill="#49c1c7" fill-rule="evenodd"/><path d="M171.393,571.951a5.941,5.941,0,0,1-1.276,6.014c-4.108,4.762-8.268,6.953-12.375,11.715v4.956c4.792-5.515,9.636-8.458,14.428-13.973a5.972,5.972,0,0,0-.768-9.036c0,.107,0,.215-.009.324Z" transform="translate(-122.471 -545.104)" fill="#ffc81e" fill-rule="evenodd"/><path d="M167.856,564.751c.8,2.413.764,4.887-.933,6.839-2.97,3.415-6.21,4.534-9.181,7.95v4.9c3.655-4.149,7.58-6,11.235-10.151,3.268-3.712,1.305-6.844-1.12-9.536Z" transform="translate(-122.471 -543.125)" fill="#ffc81e" fill-rule="evenodd"/><path d="M171.2,587.824c-4.381,4.85-9.181,7.948-13.455,12.891v.55c1.323.006,3.005-.1,4.33-.1,3.821-4.135,7.291-6.324,10.4-9.929,2.589-3,2.779-5.463,1.432-8.483-.214,1.824-.944,3.114-2.71,5.07Z" transform="translate(-122.471 -548.307)" fill="#ffc81e" fill-rule="evenodd"/><path d="M157.742,614.06c.63-.709,1.289-1.444,1.967-2.2h-1.967v2.2Z" transform="translate(-122.471 -556.687)" fill="#dbc424" fill-rule="evenodd"/><path d="M134.937,560.842c6.006-6.685,12.873-12.061,18.88-18.747,1.489-1.657,1.43-5.127,1.458-7.712a20.464,20.464,0,0,1-3.493,5.139c-5.972,6.542-12.639,11.86-18.611,18.4a8.352,8.352,0,0,0-1.273,9.167,12.584,12.584,0,0,1,3.039-6.25Z" transform="translate(-114.981 -534.383)" fill="#ffc81e" fill-rule="evenodd"/><path d="M135.48,578.36a7.225,7.225,0,0,1,.736-7.433c5.711-6.379,13.12-11.747,18.043-18.2,1.351-1.77,1.8-5.333,1.5-8.165a21.122,21.122,0,0,1-3.593,5.6c-4.656,5.27-13.936,12.66-18.294,18.275-1.974,2.542-1.855,7.71,1.6,9.924Z" transform="translate(-115.406 -537.314)" fill="#ffc81e" fill-rule="evenodd"/><path d="M140.973,586.151a5.909,5.909,0,0,1-.021-7.663c4.6-5.239,10.084-9.008,14.684-14.246,1.476-1.68,1.287-5.447,1.1-8.045a12.706,12.706,0,0,1-3.272,5.637c-4.719,5.213-10.2,9.2-14.921,14.411-3.071,3.392-.283,9.464,2.43,9.907Z" transform="translate(-116.701 -540.662)" fill="#ffc81e" fill-rule="evenodd"/></g><g transform="translate(185.4 561.773)"><rect width="157.293" height="1.074" transform="matrix(1, -0.002, 0.002, 1, 0, 23.307)" fill="#ffc81e"/><g transform="translate(0)"><path d="M227.742,586.736a4.842,4.842,0,0,1-1.852,4.014,8.1,8.1,0,0,1-5.151,1.467,12.2,12.2,0,0,1-5.378-1.132V587.38a22.273,22.273,0,0,0,3.254,1.2,9.73,9.73,0,0,0,2.436.348,3.488,3.488,0,0,0,2.033-.5,1.71,1.71,0,0,0,.708-1.493,1.639,1.639,0,0,0-.312-.984,3.481,3.481,0,0,0-.916-.83,23.748,23.748,0,0,0-2.462-1.274,11.634,11.634,0,0,1-2.611-1.557,5.836,5.836,0,0,1-1.391-1.737,4.912,4.912,0,0,1-.519-2.315,4.842,4.842,0,0,1,1.708-3.924,7.146,7.146,0,0,1,4.723-1.428,11.222,11.222,0,0,1,2.825.348,19.561,19.561,0,0,1,2.813.978l-1.3,3.1a19.129,19.129,0,0,0-2.514-.862,8.2,8.2,0,0,0-1.955-.244,2.606,2.606,0,0,0-1.754.528,1.733,1.733,0,0,0-.611,1.377,1.687,1.687,0,0,0,.247.919,2.7,2.7,0,0,0,.786.76A24.384,24.384,0,0,0,223.1,581.1a10.171,10.171,0,0,1,3.651,2.528A4.9,4.9,0,0,1,227.742,586.736Z" transform="translate(-215.361 -572.854)" fill="#fff"/><path d="M248.059,592.038l-1.377-4.477h-6.924l-1.378,4.477h-4.339l6.7-18.887h4.924l6.73,18.887Zm-2.339-7.822q-1.91-6.085-2.15-6.884t-.344-1.26q-.428,1.647-2.455,8.144Z" transform="translate(-220.608 -572.932)" fill="#fff"/><path d="M279.743,592.069h-5.119l-8.263-14.229h-.117q.247,3.77.247,5.378v8.851h-3.6v-18.81h5.08l8.25,14.088h.091q-.2-3.667-.195-5.185v-8.9h3.624Z" transform="translate(-228.712 -572.963)" fill="#fff"/><path d="M307.563,581l3.963-7.745h4.339l-6.3,11.49v7.32h-4v-7.192l-6.3-11.618h4.365Z" transform="translate(-238.927 -572.963)" fill="#fff"/><path d="M336.429,586.736a4.842,4.842,0,0,1-1.851,4.014,8.1,8.1,0,0,1-5.151,1.467,12.2,12.2,0,0,1-5.379-1.132V587.38a22.242,22.242,0,0,0,3.255,1.2,9.719,9.719,0,0,0,2.436.348,3.486,3.486,0,0,0,2.033-.5,1.71,1.71,0,0,0,.708-1.493,1.639,1.639,0,0,0-.311-.984,3.494,3.494,0,0,0-.916-.83,23.775,23.775,0,0,0-2.462-1.274,11.648,11.648,0,0,1-2.611-1.557,5.835,5.835,0,0,1-1.39-1.737,4.913,4.913,0,0,1-.52-2.315,4.84,4.84,0,0,1,1.709-3.924,7.145,7.145,0,0,1,4.722-1.428,11.227,11.227,0,0,1,2.826.348,19.562,19.562,0,0,1,2.813.978l-1.3,3.1a19.126,19.126,0,0,0-2.514-.862,8.192,8.192,0,0,0-1.955-.244,2.6,2.6,0,0,0-1.753.528,1.731,1.731,0,0,0-.611,1.377,1.687,1.687,0,0,0,.247.919,2.692,2.692,0,0,0,.786.76,24.308,24.308,0,0,0,2.553,1.318,10.168,10.168,0,0,1,3.65,2.528A4.905,4.905,0,0,1,336.429,586.736Z" transform="translate(-245.889 -572.854)" fill="#fff"/><path d="M346.053,592.069v-18.81h4.028v18.81Z" transform="translate(-252.07 -572.963)" fill="#fff"/><path d="M374.061,582.484q0,4.645-2.67,7.115t-7.71,2.47H358.3v-18.81h5.964q4.65,0,7.223,2.432A8.9,8.9,0,0,1,374.061,582.484Zm-4.184.1q0-6.059-5.4-6.06H362.33v12.248h1.727Q369.878,588.775,369.878,582.587Z" transform="translate(-255.511 -572.963)" fill="#fff"/><path d="M389.718,584.851v7.218h-4.027v-18.81h5.534q3.871,0,5.729,1.4a5.526,5.526,0,0,1,.936,7.193,6.094,6.094,0,0,1-2.611,2.026q4.287,6.343,5.586,8.2H396.4l-4.534-7.218Zm0-3.242h1.3a5.009,5.009,0,0,0,2.819-.63,2.242,2.242,0,0,0,.91-1.981,2.052,2.052,0,0,0-.929-1.9,5.682,5.682,0,0,0-2.877-.566h-1.222Z" transform="translate(-263.204 -572.963)" fill="#fff"/><path d="M427.027,582.519q0,4.67-2.339,7.179a10.211,10.211,0,0,1-13.408,0q-2.339-2.509-2.339-7.2t2.345-7.173a8.815,8.815,0,0,1,6.724-2.477q4.377,0,6.7,2.5T427.027,582.519Zm-13.862,0a7.8,7.8,0,0,0,1.208,4.747,4.243,4.243,0,0,0,3.611,1.6q4.821,0,4.82-6.342t-4.794-6.356a4.272,4.272,0,0,0-3.625,1.6A7.768,7.768,0,0,0,413.165,582.519Z" transform="translate(-269.735 -572.844)" fill="#fff"/></g><g transform="translate(0 28.358)"><path d="M220.529,618.752a1.987,1.987,0,0,1-.787,1.674,3.431,3.431,0,0,1-2.134.6,5.392,5.392,0,0,1-2.247-.372v-.913a6.122,6.122,0,0,0,2.281.456,2.4,2.4,0,0,0,1.438-.359,1.174,1.174,0,0,0,.483-1,1.272,1.272,0,0,0-.171-.693,1.6,1.6,0,0,0-.573-.5,8.11,8.11,0,0,0-1.222-.518,3.893,3.893,0,0,1-1.637-.962,2.11,2.11,0,0,1-.492-1.452,1.8,1.8,0,0,1,.713-1.5,2.988,2.988,0,0,1,1.888-.556,5.6,5.6,0,0,1,2.253.445l-.3.823a5.143,5.143,0,0,0-1.978-.423,1.925,1.925,0,0,0-1.185.323,1.058,1.058,0,0,0-.427.9,1.36,1.36,0,0,0,.158.693,1.463,1.463,0,0,0,.531.495,6.582,6.582,0,0,0,1.143.5,4.532,4.532,0,0,1,1.778.979A1.913,1.913,0,0,1,220.529,618.752Z" transform="translate(-215.361 -612.665)" fill="#fff"/><path d="M241.948,615.2a2.269,2.269,0,0,1-.851,1.9,3.88,3.88,0,0,1-2.436.665h-.966v3.2h-.955v-8.134h2.129Q241.948,612.829,241.948,615.2Zm-4.253,1.753h.859a3.222,3.222,0,0,0,1.837-.406,1.49,1.49,0,0,0,.567-1.3,1.4,1.4,0,0,0-.534-1.2,2.815,2.815,0,0,0-1.663-.4h-1.068Z" transform="translate(-221.366 -612.712)" fill="#fff"/><path d="M262.95,620.949l-1.022-2.587h-3.293l-1.011,2.587h-.966l3.247-8.167h.8l3.23,8.167Zm-1.32-3.438-.956-2.52q-.184-.478-.382-1.174a10.632,10.632,0,0,1-.354,1.174l-.966,2.52Z" transform="translate(-226.961 -612.699)" fill="#fff"/><path d="M286.626,620.963h-1.09l-4.489-6.827H281q.09,1.2.09,2.2v4.623h-.882v-8.134h1.079l4.477,6.8h.045c-.008-.1-.024-.422-.05-.966s-.036-.932-.029-1.165v-4.668h.894Z" transform="translate(-233.576 -612.712)" fill="#fff"/><path d="M304.128,620.963v-8.134h.955v8.134Z" transform="translate(-240.294 -612.712)" fill="#fff"/><path d="M324.871,618.752a1.986,1.986,0,0,1-.786,1.674,3.434,3.434,0,0,1-2.135.6,5.392,5.392,0,0,1-2.247-.372v-.913a6.122,6.122,0,0,0,2.281.456,2.4,2.4,0,0,0,1.438-.359,1.173,1.173,0,0,0,.483-1,1.272,1.272,0,0,0-.172-.693,1.6,1.6,0,0,0-.572-.5,8.128,8.128,0,0,0-1.223-.518,3.9,3.9,0,0,1-1.637-.962,2.111,2.111,0,0,1-.492-1.452,1.8,1.8,0,0,1,.714-1.5,2.988,2.988,0,0,1,1.888-.556,5.6,5.6,0,0,1,2.252.445l-.3.823a5.143,5.143,0,0,0-1.978-.423,1.925,1.925,0,0,0-1.185.323,1.058,1.058,0,0,0-.427.9,1.361,1.361,0,0,0,.158.693,1.462,1.462,0,0,0,.531.495,6.581,6.581,0,0,0,1.143.5,4.536,4.536,0,0,1,1.778.979A1.916,1.916,0,0,1,324.871,618.752Z" transform="translate(-244.669 -612.665)" fill="#fff"/><path d="M347.319,620.963h-.955v-3.828h-4.326v3.828h-.955v-8.134h.955v3.46h4.326v-3.46h.955Z" transform="translate(-250.674 -612.712)" fill="#fff"/><path d="M385.182,618.752a1.987,1.987,0,0,1-.787,1.674,3.433,3.433,0,0,1-2.135.6,5.394,5.394,0,0,1-2.247-.372v-.913a6.13,6.13,0,0,0,2.281.456,2.4,2.4,0,0,0,1.438-.359,1.173,1.173,0,0,0,.483-1,1.272,1.272,0,0,0-.171-.693,1.6,1.6,0,0,0-.573-.5,8.11,8.11,0,0,0-1.222-.518,3.9,3.9,0,0,1-1.638-.962,2.11,2.11,0,0,1-.491-1.452,1.8,1.8,0,0,1,.713-1.5,2.988,2.988,0,0,1,1.888-.556,5.607,5.607,0,0,1,2.253.445l-.3.823a5.146,5.146,0,0,0-1.978-.423,1.929,1.929,0,0,0-1.186.323,1.058,1.058,0,0,0-.426.9,1.361,1.361,0,0,0,.157.693,1.472,1.472,0,0,0,.531.495,6.582,6.582,0,0,0,1.143.5,4.532,4.532,0,0,1,1.778.979A1.916,1.916,0,0,1,385.182,618.752Z" transform="translate(-261.609 -612.665)" fill="#fff"/><path d="M407.949,616.818a4.084,4.084,0,0,1-1.1,3.079,4.4,4.4,0,0,1-3.177,1.065h-2.275v-8.134h2.517a4.045,4.045,0,0,1,2.977,1.052A3.946,3.946,0,0,1,407.949,616.818Zm-1.011.033a2.844,2.844,0,0,0-3.2-3.2h-1.388v6.5h1.163a3.558,3.558,0,0,0,2.567-.831A3.275,3.275,0,0,0,406.938,616.851Z" transform="translate(-267.614 -612.712)" fill="#fff"/><path d="M429.635,620.949l-1.023-2.587h-3.292l-1.012,2.587h-.966l3.247-8.167h.8l3.231,8.167Zm-1.32-3.438-.955-2.52q-.185-.478-.383-1.174a10.462,10.462,0,0,1-.354,1.174l-.966,2.52Z" transform="translate(-273.78 -612.699)" fill="#fff"/></g></g></g></svg>