<?xml version="1.0" standalone="no"?>
<!DOCTYPE svg PUBLIC "-//W3C//DTD SVG 20010904//EN"
 "http://www.w3.org/TR/2001/REC-SVG-20010904/DTD/svg10.dtd">
<svg version="1.0" xmlns="http://www.w3.org/2000/svg"
 width="848.000000pt" height="848.000000pt" viewBox="0 0 848.000000 848.000000"
 preserveAspectRatio="xMidYMid meet">
<metadata>
Created by potrace 1.11, written by Peter Selinger 2001-2013
</metadata>
<g transform="translate(0.000000,848.000000) scale(0.100000,-0.100000)"
fill="#000000" stroke="none">
<path d="M8016 8472 c-3 -5 -7 -19 -9 -33 -12 -64 -64 -191 -105 -254 -68
-108 -112 -154 -761 -804 -333 -334 -613 -616 -621 -627 -43 -56 -80 -113 -80
-122 0 -6 -4 -12 -8 -14 -14 -5 -96 -189 -108 -240 -1 -5 -2 -9 -4 -10 -1 -2
-3 -11 -5 -22 -2 -10 -9 -39 -15 -65 -11 -49 -22 -141 -21 -180 1 -20 -1 -21
-14 -11 -8 7 -15 17 -15 22 0 5 -13 29 -30 53 -16 24 -30 46 -30 50 0 3 -11
22 -23 43 -13 20 -36 60 -52 87 -74 134 -160 281 -168 286 -5 3 -7 8 -6 10 4
5 -50 99 -69 122 -8 9 -12 17 -8 17 4 0 -7 20 -24 44 -16 25 -30 47 -30 49 0
2 -32 58 -72 123 -39 66 -79 133 -88 149 -53 93 -215 362 -226 375 -7 8 -13
18 -13 23 0 4 -7 17 -14 30 -8 12 -49 81 -93 152 -89 147 -179 246 -259 285
-27 13 -52 24 -55 25 -3 1 -12 4 -20 8 -64 25 -151 30 -552 33 l-428 2 0 -86
c-2 -435 0 -935 2 -938 2 -2 69 -4 148 -5 155 -1 190 -9 225 -50 11 -13 72
-103 135 -199 63 -96 118 -176 123 -178 4 -2 7 -7 7 -12 0 -4 82 -131 181
-281 100 -151 220 -332 268 -404 47 -71 88 -132 92 -135 3 -3 9 -12 12 -20 4
-8 15 -27 25 -41 9 -14 35 -54 57 -88 22 -35 48 -72 57 -83 10 -11 20 -29 23
-39 4 -11 11 -19 16 -19 5 0 9 -7 9 -15 0 -8 5 -15 10 -15 6 0 10 -7 10 -15 0
-8 5 -15 10 -15 6 0 10 -5 10 -11 0 -6 15 -31 33 -56 l32 -45 0 -1069 c0 -587
3 -1070 6 -1073 9 -9 659 -12 659 -4 0 4 7 5 15 2 23 -9 145 -10 145 -1 0 5 4
6 10 2 5 -3 93 -6 197 -6 161 -1 188 1 193 15 3 8 4 489 4 1068 l-1 1053 35
78 c19 42 39 77 43 77 5 0 9 5 9 11 0 25 84 113 508 539 590 591 623 628 696
780 l40 85 4 218 c2 144 0 217 -7 217 -14 0 -21 -13 -23 -44 -1 -14 -6 -26
-10 -26 -4 0 -8 -9 -8 -19 0 -11 -5 -32 -12 -48 -6 -15 -12 -30 -12 -33 -3
-12 -30 -75 -35 -80 -4 -3 -13 -18 -21 -35 -8 -16 -17 -32 -21 -35 -3 -3 -18
-23 -34 -45 -38 -51 -169 -186 -712 -728 -241 -240 -455 -460 -477 -489 -21
-28 -52 -80 -69 -114 l-31 -63 -33 57 c-32 56 -42 102 -23 102 6 0 10 5 10 11
0 16 122 199 132 199 4 0 8 5 8 10 0 18 48 67 585 605 544 545 591 595 649
672 20 27 40 53 45 59 21 25 72 130 85 175 17 56 18 442 2 447 -6 1 -11 -4
-13 -13 -6 -27 -11 -50 -13 -50 -1 0 -3 -7 -5 -15 -5 -27 -35 -112 -47 -134
-7 -11 -13 -23 -13 -26 -2 -13 -36 -69 -64 -105 -71 -91 -130 -152 -677 -699
-616 -617 -657 -663 -757 -863 -28 -57 -54 -103 -57 -103 -4 0 -15 18 -25 41
-17 36 -17 47 -6 102 26 129 128 299 276 464 39 42 309 316 600 608 520 522
635 641 685 714 14 20 30 42 37 48 21 23 70 137 82 191 13 64 15 422 2 422 -6
0 -12 -4 -15 -8z"/>
<path d="M2155 8161 c-2 -2 -25 -5 -52 -7 -91 -6 -179 -17 -243 -29 -14 -3
-51 -10 -82 -15 -113 -21 -324 -96 -448 -159 -138 -71 -149 -78 -265 -165 -73
-55 -255 -231 -255 -246 0 -4 -10 -18 -21 -31 -52 -58 -189 -304 -189 -338 0
-5 -5 -22 -12 -38 -6 -15 -12 -32 -13 -38 -2 -5 -8 -28 -13 -50 -6 -22 -14
-55 -17 -74 -3 -19 -7 -37 -9 -40 -7 -11 -20 -167 -19 -241 0 -81 10 -220 17
-241 3 -8 7 -27 10 -44 6 -46 28 -129 36 -140 4 -5 10 -23 14 -40 4 -16 19
-55 33 -85 14 -30 24 -57 23 -59 -1 -2 2 -7 7 -10 4 -3 19 -26 32 -51 13 -25
31 -55 40 -66 9 -12 23 -32 31 -44 23 -36 127 -156 173 -202 101 -99 311 -254
427 -316 25 -14 52 -30 60 -37 26 -21 526 -265 544 -265 3 0 42 -17 88 -38 46
-21 99 -45 118 -52 19 -8 97 -45 174 -82 210 -104 311 -178 363 -267 22 -38
26 -57 26 -116 -2 -170 -118 -291 -318 -331 -11 -2 -31 -6 -45 -9 -45 -10
-239 -7 -298 5 -115 23 -226 58 -320 101 -35 16 -64 29 -66 29 -17 0 -248 148
-254 162 -2 4 -9 8 -15 8 -7 0 -29 16 -50 35 -21 19 -40 35 -42 35 -8 0 -55
42 -133 118 -68 66 -76 71 -87 55 -7 -10 -21 -28 -31 -39 -11 -12 -44 -54 -74
-93 -30 -39 -58 -71 -62 -71 -5 0 -8 -5 -8 -11 0 -6 -9 -21 -20 -33 -16 -18
-184 -228 -399 -501 -30 -38 -59 -73 -65 -77 -15 -10 130 -164 238 -252 21
-17 57 -46 80 -65 75 -62 265 -182 379 -240 117 -59 210 -101 222 -101 4 0 21
-6 38 -14 29 -13 178 -62 217 -71 63 -15 222 -47 250 -51 143 -19 249 -27 365
-27 100 0 248 9 295 18 14 2 47 7 73 9 26 3 51 7 55 10 4 2 23 7 42 10 19 3
69 15 110 26 41 11 82 22 91 24 8 2 31 11 51 19 20 9 39 13 42 9 3 -3 6 0 6 6
0 7 11 12 24 12 13 0 29 7 36 15 7 8 19 15 26 15 24 0 182 89 274 153 106 74
288 257 357 359 78 114 176 326 199 429 9 39 12 54 14 54 2 0 9 35 15 75 3 19
8 46 11 60 11 43 12 352 2 415 -9 52 -30 156 -42 205 -18 70 -87 227 -133 305
-26 43 -57 89 -63 95 -3 3 -17 21 -31 40 -42 57 -178 191 -254 252 -106 84
-201 146 -380 246 -47 26 -169 83 -280 131 -66 29 -133 59 -149 67 -16 8 -33
14 -38 14 -4 0 -30 9 -56 21 -26 12 -56 25 -67 29 -11 4 -41 17 -66 29 -26 11
-59 23 -73 27 -14 3 -29 10 -32 15 -3 5 -12 9 -19 9 -16 0 -287 129 -295 140
-3 4 -19 14 -36 23 -55 28 -142 116 -168 170 -22 44 -25 62 -21 117 6 85 7 90
17 90 4 0 8 7 8 15 0 25 92 111 149 139 109 56 288 81 436 61 102 -14 231 -71
292 -129 61 -59 70 -90 72 -226 1 -69 6 -127 11 -130 4 -3 251 -5 547 -5 l538
0 -1 310 c-1 309 -7 409 -26 433 -6 6 -8 12 -4 12 3 0 0 16 -8 35 -8 19 -13
35 -10 35 2 0 -3 15 -13 33 -9 17 -16 35 -15 40 1 4 -3 7 -8 7 -6 0 -10 5 -10
11 0 19 -86 141 -137 195 -61 64 -166 154 -180 154 -6 0 -13 4 -15 8 -1 4 -31
25 -64 45 -154 93 -382 181 -579 223 -102 22 -93 20 -240 40 -72 9 -354 22
-360 15z"/>
<path d="M1587 1883 c-1 -1 -37 -4 -79 -7 -184 -13 -334 -71 -428 -167 -30
-30 -60 -62 -65 -70 -69 -95 -91 -293 -46 -412 13 -31 29 -63 37 -71 8 -8 14
-18 14 -22 0 -10 91 -94 101 -94 4 0 14 -6 21 -13 18 -17 134 -71 173 -81 6
-2 17 -6 25 -9 8 -3 26 -8 40 -12 14 -3 59 -15 100 -26 41 -11 84 -22 95 -24
74 -15 121 -28 129 -36 6 -5 20 -9 32 -9 28 0 167 -56 217 -87 49 -31 94 -79
120 -128 30 -57 30 -200 0 -265 -69 -148 -224 -219 -503 -231 -107 -4 -284 32
-370 75 -28 14 -50 23 -50 20 0 -5 -121 77 -171 116 l-26 20 -30 -49 -31 -48
28 -27 c16 -14 33 -26 38 -26 6 0 12 -4 14 -8 5 -14 90 -67 149 -95 163 -76
270 -98 469 -93 80 2 156 6 170 10 14 3 36 8 49 11 105 21 226 84 303 159 80
77 127 201 122 325 -7 170 -90 291 -257 370 -60 28 -192 75 -239 85 -64 14
-303 77 -358 96 -93 31 -173 76 -226 125 -12 12 -63 97 -63 108 -1 4 -1 8 -2
10 -10 31 -12 110 -5 158 16 107 149 243 258 263 13 3 23 5 23 6 0 2 7 3 55
15 23 5 131 17 155 17 108 -1 259 -23 298 -44 10 -5 27 -11 37 -13 25 -5 83
-32 143 -67 26 -15 50 -28 53 -28 3 0 16 23 29 52 22 48 23 53 7 63 -38 26
-130 72 -177 89 -27 10 -57 20 -65 23 -20 8 -28 10 -69 18 -19 3 -37 8 -41 10
-11 7 -198 24 -203 18z"/>
<path d="M3228 1863 c-4 -7 -3 -1808 1 -1839 1 -12 877 -14 896 -2 6 3 33 9
60 12 74 10 219 61 305 108 41 22 77 43 80 47 3 3 21 18 40 32 88 66 174 170
234 283 21 39 65 156 67 178 0 4 5 22 10 40 16 58 22 120 22 223 -1 115 -10
175 -47 315 -15 53 -97 205 -141 259 -92 112 -218 205 -365 269 -55 24 -100
41 -100 37 0 -3 -11 0 -24 5 -13 5 -41 11 -63 15 -21 3 -50 8 -63 12 -38 10
-907 16 -912 6z m907 -132 c304 -52 543 -245 630 -510 78 -237 47 -537 -74
-717 -17 -25 -31 -47 -31 -49 0 -2 -21 -27 -46 -54 -90 -97 -203 -169 -337
-214 -135 -46 -162 -48 -572 -50 l-339 -2 -7 33 c-4 18 -3 34 1 37 4 3 5 19 1
37 -4 18 -4 56 -1 86 4 29 3 55 -2 58 -4 3 -3 16 2 29 5 14 5 27 0 30 -5 3 -5
18 0 35 5 17 5 32 0 35 -6 3 -5 16 0 29 5 13 6 27 3 30 -7 7 -8 105 -1 112 3
2 2 19 -1 37 -4 18 -4 50 -1 73 4 22 3 49 0 60 -4 10 -4 31 1 47 4 15 4 27 -1
27 -4 0 -4 16 0 35 4 19 4 35 0 35 -5 0 -5 14 0 30 5 17 6 30 2 30 -8 0 -7 98
0 106 3 2 2 19 -1 36 -4 18 -4 56 -1 86 4 29 3 55 -2 58 -4 3 -3 16 2 29 5 14
5 27 0 30 -5 3 -5 18 0 35 5 17 5 32 0 35 -6 3 -5 16 0 29 5 13 6 27 3 30 -3
3 -6 28 -6 56 0 28 3 53 6 56 3 3 2 17 -3 30 -5 13 -5 26 -1 29 5 3 7 13 4 23
-4 18 12 18 349 17 223 -1 379 -6 423 -14z"/>
<path d="M6440 1823 c-13 -26 -38 -82 -57 -123 -19 -41 -48 -104 -65 -140 -16
-36 -49 -108 -73 -160 -24 -52 -64 -139 -89 -193 -25 -55 -46 -100 -46 -102 0
-2 -21 -48 -47 -102 -26 -54 -48 -100 -48 -103 -1 -3 -11 -24 -23 -46 -11 -23
-18 -44 -15 -48 4 -3 1 -6 -5 -6 -7 0 -12 -9 -12 -20 0 -11 -4 -20 -10 -20 -5
0 -10 -6 -10 -14 0 -13 -20 -57 -126 -282 -13 -28 -24 -56 -24 -62 0 -7 -4
-12 -10 -12 -5 0 -10 -5 -10 -12 0 -6 -9 -30 -19 -52 -11 -23 -29 -63 -41 -91
-12 -27 -40 -87 -61 -132 -21 -44 -39 -83 -39 -86 0 -2 32 -4 71 -4 l71 1 40
85 c22 48 47 104 56 126 9 22 19 42 24 45 4 3 9 15 11 25 2 11 22 58 44 105
22 47 43 95 47 108 4 12 13 23 19 23 7 1 248 2 536 3 508 1 525 0 543 -18 10
-11 18 -23 18 -28 0 -7 24 -61 87 -198 19 -41 53 -115 75 -165 23 -50 45 -95
49 -101 7 -9 109 -13 141 -6 3 1 -4 23 -17 49 -12 27 -33 71 -45 98 -12 28
-42 92 -66 143 -24 52 -44 95 -44 97 0 1 -29 64 -65 140 -36 75 -65 138 -65
141 0 2 -25 56 -55 120 -30 64 -55 118 -55 120 0 2 -20 45 -44 96 -44 95 -78
167 -126 273 -15 33 -41 89 -57 125 -17 36 -42 90 -56 120 -167 366 -139 324
-218 328 l-66 3 -23 -48z m123 -178 c8 -22 33 -78 55 -125 22 -47 83 -182 137
-300 54 -118 111 -244 127 -280 32 -69 62 -136 103 -225 14 -31 25 -58 25 -60
0 -3 -219 -5 -486 -5 l-485 0 15 28 c14 27 45 94 86 187 12 28 34 75 47 105
14 30 33 73 43 95 10 22 30 67 46 100 15 33 29 62 29 65 1 3 16 36 33 73 18
38 32 71 32 73 0 2 17 38 37 81 21 43 38 80 39 83 0 3 18 42 39 88 42 91 48
92 78 17z"/>
</g>
</svg>
